<svg xmlns="http://www.w3.org/2000/svg" width="644" height="687" viewBox="0 0 644 687" role="img" aria-label="Heather at work">
  <defs>
    <linearGradient id="g" x1="0" y1="0" x2="1" y2="1">
      <stop offset="0" stop-color="#3A4038"/>
      <stop offset="1" stop-color="#1B3620"/>
    </linearGradient>
  </defs>
  <rect width="644" height="687" fill="url(#g)"/>
  <g fill="none" stroke="#D8876E" stroke-opacity="0.14" stroke-width="1">
    <line x1="-687" y1="0" x2="0" y2="687"/>
    <line x1="-643" y1="0" x2="44" y2="687"/>
    <line x1="-599" y1="0" x2="88" y2="687"/>
    <line x1="-555" y1="0" x2="132" y2="687"/>
    <line x1="-511" y1="0" x2="176" y2="687"/>
    <line x1="-467" y1="0" x2="220" y2="687"/>
    <line x1="-423" y1="0" x2="264" y2="687"/>
    <line x1="-379" y1="0" x2="308" y2="687"/>
    <line x1="-335" y1="0" x2="352" y2="687"/>
    <line x1="-291" y1="0" x2="396" y2="687"/>
    <line x1="-247" y1="0" x2="440" y2="687"/>
    <line x1="-203" y1="0" x2="484" y2="687"/>
    <line x1="-159" y1="0" x2="528" y2="687"/>
    <line x1="-115" y1="0" x2="572" y2="687"/>
    <line x1="-71" y1="0" x2="616" y2="687"/>
    <line x1="-27" y1="0" x2="660" y2="687"/>
    <line x1="17" y1="0" x2="704" y2="687"/>
    <line x1="61" y1="0" x2="748" y2="687"/>
    <line x1="105" y1="0" x2="792" y2="687"/>
    <line x1="149" y1="0" x2="836" y2="687"/>
    <line x1="193" y1="0" x2="880" y2="687"/>
    <line x1="237" y1="0" x2="924" y2="687"/>
    <line x1="281" y1="0" x2="968" y2="687"/>
    <line x1="325" y1="0" x2="1012" y2="687"/>
    <line x1="369" y1="0" x2="1056" y2="687"/>
    <line x1="413" y1="0" x2="1100" y2="687"/>
    <line x1="457" y1="0" x2="1144" y2="687"/>
    <line x1="501" y1="0" x2="1188" y2="687"/>
    <line x1="545" y1="0" x2="1232" y2="687"/>
    <line x1="589" y1="0" x2="1276" y2="687"/>
    <line x1="633" y1="0" x2="1320" y2="687"/>
  </g>
  <text x="50%" y="50%" fill="#D8876E" fill-opacity="0.65" font-family="Fustat, system-ui, sans-serif"
        font-size="20" font-weight="500" text-anchor="middle" dominant-baseline="middle">Heather at work</text>
</svg>
