<svg xmlns="http://www.w3.org/2000/svg" width="445" height="488" viewBox="0 0 445 488" role="img" aria-label="Interior · living room">
  <defs>
    <linearGradient id="g" x1="0" y1="0" x2="1" y2="1">
      <stop offset="0" stop-color="#2A3D2C"/>
      <stop offset="1" stop-color="#1B3620"/>
    </linearGradient>
  </defs>
  <rect width="445" height="488" fill="url(#g)"/>
  <g fill="none" stroke="#D8876E" stroke-opacity="0.14" stroke-width="1">
    <line x1="-488" y1="0" x2="0" y2="488"/>
    <line x1="-444" y1="0" x2="44" y2="488"/>
    <line x1="-400" y1="0" x2="88" y2="488"/>
    <line x1="-356" y1="0" x2="132" y2="488"/>
    <line x1="-312" y1="0" x2="176" y2="488"/>
    <line x1="-268" y1="0" x2="220" y2="488"/>
    <line x1="-224" y1="0" x2="264" y2="488"/>
    <line x1="-180" y1="0" x2="308" y2="488"/>
    <line x1="-136" y1="0" x2="352" y2="488"/>
    <line x1="-92" y1="0" x2="396" y2="488"/>
    <line x1="-48" y1="0" x2="440" y2="488"/>
    <line x1="-4" y1="0" x2="484" y2="488"/>
    <line x1="40" y1="0" x2="528" y2="488"/>
    <line x1="84" y1="0" x2="572" y2="488"/>
    <line x1="128" y1="0" x2="616" y2="488"/>
    <line x1="172" y1="0" x2="660" y2="488"/>
    <line x1="216" y1="0" x2="704" y2="488"/>
    <line x1="260" y1="0" x2="748" y2="488"/>
    <line x1="304" y1="0" x2="792" y2="488"/>
    <line x1="348" y1="0" x2="836" y2="488"/>
    <line x1="392" y1="0" x2="880" y2="488"/>
    <line x1="436" y1="0" x2="924" y2="488"/>
  </g>
  <text x="50%" y="50%" fill="#D8876E" fill-opacity="0.65" font-family="Fustat, system-ui, sans-serif"
        font-size="20" font-weight="500" text-anchor="middle" dominant-baseline="middle">Interior · living room</text>
</svg>
